<?xml version="1.0" encoding="UTF-8" standalone="no"?>
<!-- Created with Inkscape (http://www.inkscape.org/) -->

<svg
   xmlns:dc="http://purl.org/dc/elements/1.1/"
   xmlns:cc="http://creativecommons.org/ns#"
   xmlns:rdf="http://www.w3.org/1999/02/22-rdf-syntax-ns#"
   xmlns:svg="http://www.w3.org/2000/svg"
   xmlns="http://www.w3.org/2000/svg"
   xmlns:xlink="http://www.w3.org/1999/xlink"
   xmlns:sodipodi="http://sodipodi.sourceforge.net/DTD/sodipodi-0.dtd"
   xmlns:inkscape="http://www.inkscape.org/namespaces/inkscape"
   width="210mm"
   height="297mm"
   viewBox="0 0 210 297"
   version="1.1"
   id="svg8"
   inkscape:version="0.92.2 (5c3e80d, 2017-08-06)"
   sodipodi:docname="planet.svg">
  <defs
     id="defs2">
    <linearGradient
       inkscape:collect="always"
       id="linearGradient4538">
      <stop
         style="stop-color:#000000;stop-opacity:1;"
         offset="0"
         id="stop4534" />
      <stop
         id="stop4546"
         offset="0.86477113"
         style="stop-color:#ffffff;stop-opacity:1" />
      <stop
         id="stop4544"
         offset="0.91117924"
         style="stop-color:#fffff2;stop-opacity:1" />
      <stop
         style="stop-color:#009eff;stop-opacity:1"
         offset="1"
         id="stop4536" />
    </linearGradient>
    <radialGradient
       inkscape:collect="always"
       xlink:href="#linearGradient4538"
       id="radialGradient4540"
       cx="-159.50595"
       cy="139.7619"
       fx="-159.50595"
       fy="139.7619"
       r="126.57654"
       gradientUnits="userSpaceOnUse" />
  </defs>
  <sodipodi:namedview
     id="base"
     pagecolor="#ffffff"
     bordercolor="#666666"
     borderopacity="1.0"
     inkscape:pageopacity="0.0"
     inkscape:pageshadow="2"
     inkscape:zoom="0.7"
     inkscape:cx="-529.69684"
     inkscape:cy="567.59652"
     inkscape:document-units="mm"
     inkscape:current-layer="layer1"
     showgrid="false"
     inkscape:window-width="1510"
     inkscape:window-height="1008"
     inkscape:window-x="403"
     inkscape:window-y="0"
     inkscape:window-maximized="0" />
  <metadata
     id="metadata5">
    <rdf:RDF>
      <cc:Work
         rdf:about="">
        <dc:format>image/svg+xml</dc:format>
        <dc:type
           rdf:resource="http://purl.org/dc/dcmitype/StillImage" />
        <dc:title></dc:title>
      </cc:Work>
    </rdf:RDF>
  </metadata>
  <g
     inkscape:label="Layer 1"
     inkscape:groupmode="layer"
     id="layer1">
    <circle
       style="fill:url(#radialGradient4540);fill-opacity:1;stroke:#43ffff;stroke-width:0.66500002;stroke-miterlimit:4;stroke-dasharray:none;stroke-opacity:1"
       id="path3699"
       cx="-159.50595"
       cy="139.7619"
       r="126.24404" />
    <circle
       style="fill:#0000ff;fill-opacity:1;stroke:none;stroke-width:0.93099993;stroke-miterlimit:4;stroke-dasharray:none;stroke-opacity:1"
       id="path4550"
       cx="-159.50595"
       cy="139.7619"
       r="117.73958" />
    <path
       style="fill:#008000;stroke:#000000;stroke-width:0.99999994px;stroke-linecap:butt;stroke-linejoin:miter;stroke-opacity:1"
       d="M -602.85742,83.234375 A 444.99998,444.99998 0 0 0 -920.34961,217.01562 c 0.11706,-0.0693 0.2403,-0.12895 0.34961,-0.21093 1.07747,-0.80812 1.70247,-2.16252 2.85742,-2.85547 1.29124,-0.77476 2.87517,-0.90095 4.28516,-1.42969 2.40109,-0.9004 4.84893,-1.7106 7.14258,-2.85742 1.53566,-0.76783 2.71815,-2.16011 4.28711,-2.85742 2.7521,-1.22317 5.73997,-1.82625 8.57031,-2.85547 2.40998,-0.87636 4.65482,-2.23548 7.14258,-2.85742 1.38595,-0.34647 2.87288,0.20201 4.28711,0 1.94366,-0.27765 3.80812,-0.9535 5.71289,-1.42969 1.90476,-0.47619 3.827,-0.88835 5.71484,-1.42773 1.44794,-0.4137 2.7998,-1.18213 4.28516,-1.42969 1.40916,-0.23486 2.87798,0.23486 4.28711,0 1.48535,-0.24756 2.80853,-1.13242 4.28515,-1.42774 0.93389,-0.18678 1.90506,0 2.85742,0 h 5.71289 c 1.20949,0 4.94685,-0.25602 5.71485,0 3.18826,1.06275 3.731,10.31947 4.28515,11.42774 0.47619,0.95238 2.10451,0.67677 2.85743,1.42969 3.17155,1.08021 0.25168,4.14413 1.42968,5.71484 1.03015,1.37354 2.9116,1.82531 4.28516,2.85547 2.15497,1.61624 3.61139,4.03208 5.71484,5.71484 1.66292,1.33035 4.0092,1.57966 5.71289,2.85742 1.07747,0.80812 1.70248,2.16446 2.85743,2.85743 1.29123,0.77475 2.85852,0.95154 4.28711,1.42773 3.05283,1.01762 6.86087,2.40898 10,2.85742 1.41422,0.20205 2.85657,0 4.28515,0 0.95237,0 1.93348,-0.23097 2.85742,0 1.03302,0.25826 1.84727,1.09297 2.85743,1.42969 0.45176,0.15058 0.96576,-0.1155 1.42773,0 1.4609,0.36521 2.7885,1.26143 4.28516,1.42773 2.83967,0.31552 5.74385,-0.40405 8.57226,0 0.66667,0.0952 0.77441,1.26441 1.42774,1.42774 2.24088,0.56022 4.90169,-0.56023 7.14257,0 3.07907,0.76977 4.03111,3.66441 7.14454,4.28711 1.40084,0.28017 2.87603,-0.23486 4.28515,0 1.48536,0.24756 2.82426,1.06251 4.28516,1.42773 0.46197,0.1155 0.97792,-0.15058 1.42969,0 1.01015,0.33672 1.84531,1.09297 2.85546,1.42969 0.45173,0.15058 0.95351,0 1.42969,0 1.42859,0 2.87604,-0.23486 4.28516,0 1.48535,0.24756 2.80857,1.13241 4.28515,1.42773 2.63449,0.52689 7.38155,-0.5237 10,0 1.04414,0.20882 1.82441,1.16949 2.85743,1.42774 0.92394,0.231 2.00559,-0.42593 2.85742,0 1.20468,0.60234 1.65273,2.25508 2.85742,2.85742 0.85187,0.42592 2.00559,-0.42592 2.85742,0 0.42595,0.21298 -0.21279,1.00378 0,1.42969 0.30123,0.60234 1.12658,0.8254 1.42774,1.42773 0.21316,0.42592 -0.11566,0.96771 0,1.42969 0.3651,1.46088 1.06443,2.82427 1.42968,4.28516 0.11566,0.46196 0,0.95154 0,1.42773 0,1.42857 -0.34658,2.90119 0,4.28711 0.16328,0.65332 1.2148,0.78885 1.42774,1.42773 0.30123,0.90351 -0.23093,1.93349 0,2.85743 0.25814,1.033 0.9535,1.90504 1.42969,2.85742 0.47618,0.95237 0.67481,2.10449 1.42773,2.85742 0.75292,0.75292 2.17575,0.60973 2.85742,1.42773 1.77755,2.13307 2.61914,4.92127 4.28516,7.14258 1.21217,1.61625 2.85661,2.85659 4.28515,4.28516 1.90477,1.90476 3.96179,3.6696 5.71485,5.71484 1.46577,1.71008 6.71447,10.71619 7.14258,11.42969 1.42858,2.38095 2.95751,4.70497 4.28711,7.14258 1.52965,2.80433 2.59211,5.86148 4.28515,8.57031 0.71384,1.14215 2.25508,1.65275 2.85742,2.85742 0.42592,0.85184 -0.42591,2.00559 0,2.85742 0.60235,1.20467 2.11033,1.73676 2.85743,2.85743 0.14211,0.21286 0,3.81601 0,4.28515 0,3.80953 -0.47704,-0.47508 1.42773,1.42969 0.33676,0.33672 -0.42591,1.21478 0,1.42773 0.85183,0.42593 2.00559,-0.42592 2.85742,0 1.20469,0.60235 1.70251,2.16446 2.85742,2.85743 1.29128,0.77475 2.9011,0.83455 4.28516,1.42773 1.95742,0.83889 3.67507,2.24549 5.71484,2.85742 5.04341,1.51303 15.39268,1.79419 20,2.85742 2.49873,0.57662 4.65478,2.23548 7.14258,2.85743 1.38595,0.34646 2.85661,-10e-6 4.28516,0 h 8.57226 8.57032 c 0.47618,0 1.09297,0.33671 1.42968,0 0.33676,-0.33672 0,-0.9535 0,-1.42969 v -5.71289 -15.71485 c 0,-0.9193 -0.24189,-9.03322 0,-10 0.25815,-1.033 0.95156,-1.90503 1.42774,-2.85742 0.95236,-1.90476 2.18398,-3.69454 2.85742,-5.71484 0.30123,-0.90351 -0.42591,-2.00364 0,-2.85547 1.06481,-2.12959 2.96444,-3.73378 4.28516,-5.71484 0.59066,-0.88596 0.95346,-1.90505 1.42968,-2.85743 0.47619,-0.95238 1.16952,-1.82441 1.42774,-2.85742 0.23093,-0.92394 -0.23093,-1.93347 0,-2.85742 0.25814,-1.033 1.09297,-1.84727 1.42969,-2.85742 0.15042,-0.45176 -0.15043,-0.97599 0,-1.42774 0.33675,-1.01016 1.03228,-1.86878 1.42773,-2.85742 0.55926,-1.39814 0.7543,-2.93828 1.42773,-4.28515 0.30123,-0.60234 1.05612,-0.86936 1.42969,-1.42969 0.59063,-0.88596 0.95155,-1.90309 1.42774,-2.85547 0.60619,-1.21236 3.63083,-7.91599 4.28711,-8.57227 1.21406,-1.21405 2.94448,-1.78486 4.28515,-2.85742 2.10346,-1.68276 3.55983,-4.0986 5.71485,-5.71484 0.85183,-0.63888 1.94241,-0.87991 2.85546,-1.42774 1.47224,-0.88336 2.69298,-2.21976 4.28711,-2.85742 0.88426,-0.35369 2.0056,0.42592 2.85743,0 1.20468,-0.60233 1.9031,-1.90504 2.85546,-2.85742 0.47619,-0.47619 0.7908,-1.21477 1.42969,-1.42773 0.97183,-0.32395 6.38509,0.37874 7.14258,0 0.60234,-0.30116 0.95155,-0.9535 1.42773,-1.42969 1.42859,0 2.9012,0.34647 4.28711,0 0.65333,-0.16335 0.78885,-1.21478 1.42774,-1.42774 0.6534,-0.21781 5.07916,0.31786 5.71484,0 0.60235,-0.30115 0.82539,-1.12656 1.42774,-1.42773 0.8979,-0.44895 4.81694,0.44894 5.71484,0 1.20465,-0.60234 1.57968,-2.4315 2.85742,-2.85742 0.9035,-0.30116 1.90502,0 2.85742,0 1.42859,0 2.88432,0.28017 4.28516,0 5.74874,-1.14975 0.65579,-1.04275 4.28516,-2.85742 0.42591,-0.21298 0.9535,0 1.42968,0 0.95241,0 1.95389,0.30119 2.85743,0 0.63885,-0.21298 0.95155,-0.9535 1.42773,-1.42969 0.9524,-0.47619 1.84727,-1.09103 2.85742,-1.42774 0.90354,-0.30115 2.18399,0.67344 2.85742,0 0.33676,-0.33671 -0.42591,-1.21478 0,-1.42773 0.85183,-0.42592 1.93348,0.23097 2.85743,0 1.03298,-0.25826 1.86682,-1.03423 2.85546,-1.42969 1.39817,-0.55925 2.88895,-0.86847 4.28711,-1.42773 1.97726,-0.79091 3.64689,-2.34093 5.71289,-2.85742 0.92399,-0.23101 1.95389,0.30115 2.85743,0 0.63885,-0.21298 0.86937,-1.05614 1.42968,-1.42969 0.88596,-0.59064 1.86878,-1.03228 2.85743,-1.42774 14.38038,-5.75215 -3.03343,1.11626 7.14257,-1.42773 1.03299,-0.25826 1.86878,-1.03423 2.85743,-1.42969 2.79628,-1.11851 5.71314,-1.90504 8.57031,-2.85742 4.72554,-1.57519 9.55957,-2.70997 14.28515,-4.28516 18.60707,-6.20236 0.49948,-0.48493 10,-4.28515 10.35799,-4.14319 -0.48746,0.0967 7.14454,-1.42969 1.47662,-0.29533 2.80857,-1.13241 4.28515,-1.42773 0.93389,-0.18679 1.97317,0.35372 2.85742,0 1.59413,-0.63765 2.7495,-2.0896 4.28516,-2.85743 0.42591,-0.21297 0.97597,0.15058 1.42773,0 10.34775,-3.44925 -2.2509,0.41159 4.28711,-2.85742 0.42592,-0.21294 1.00182,0.21298 1.42774,0 2.6013,-1.30065 0.83853,-1.08396 1.42969,-2.85742 0.33675,-1.01015 1.09101,-1.84727 1.42773,-2.85742 0.1508,-0.45176 0,-0.95155 0,-1.42774 v -4.28515 c 0,-1.90476 -0.26948,-3.82923 0,-5.71485 0.21279,-1.49071 1.06252,-2.82426 1.42773,-4.28515 0.58889,-2.35561 0.66184,-4.83908 1.42969,-7.14258 0.67344,-2.02031 1.90502,-3.81008 2.85742,-5.71484 0.95237,-1.90477 1.57968,-4.01117 2.85743,-5.71485 1.61623,-2.15499 3.92324,-3.70151 5.71289,-5.71484 0.14248,-0.16018 11.37586,-14.23583 11.42968,-14.28516 0.35234,-0.32297 0.71516,-0.63312 1.07813,-0.94336 A 444.99998,444.99998 0 0 0 -602.85742,83.234375 Z M -299.5957,203.33008 c -1.31653,2.83772 -2.5486,5.31328 -3.26172,6.33203 -12.10684,17.29548 0.83446,-8.1936 -11.42774,14.28711 -0.28849,0.5289 -3.88439,9.41411 -4.28711,11.42773 -0.37353,1.86777 0.46198,3.86696 0,5.71485 -0.66026,2.64107 -4.88724,7.24926 -5.71289,8.57031 -1.12868,1.80589 -1.4715,4.09793 -2.85742,5.71484 -1.5495,1.80775 -4.03126,2.60157 -5.71484,4.28516 -1.68359,1.68359 -2.60157,4.03126 -4.28516,5.71484 -1.68358,1.68359 -3.81008,2.85659 -5.71484,4.28516 -3.57859,2.68394 -7.21433,4.99069 -10,8.57227 -2.10819,2.71052 -3.65453,5.82322 -5.71485,8.57031 -0.80812,1.07749 -2.07261,1.76143 -2.85546,2.85742 -1.61389,2.25945 -2.62112,4.92126 -4.28711,7.14258 -1.21218,1.61624 -3.11088,2.64311 -4.28516,4.28711 -1.2378,1.73291 -1.61962,3.97997 -2.85742,5.71289 -2.48658,3.48121 -5.72548,4.32099 -7.14258,8.57226 -0.45173,1.35526 0.45177,2.9299 0,4.28516 -0.15043,0.45176 -1.2148,-0.42592 -1.42773,0 -0.6389,1.27775 0,2.85853 0,4.28711 0,1.42857 -0.23471,2.87602 0,4.28516 0.24755,1.48535 0.95155,2.85658 1.42773,4.28515 0.47622,1.42858 0.83454,2.90107 1.42773,4.28516 0.8389,1.9574 2.01854,3.75744 2.85743,5.71484 0.59319,1.3841 0.90095,2.87519 1.42968,4.28516 0.9004,2.40109 2.1827,4.67052 2.85743,7.14453 0.76213,2.79449 0.59541,5.79592 1.42773,8.57031 4.28571,14.28572 1.42802,8.4e-4 4.28516,8.57227 0.62088,1.86262 0.8088,3.85026 1.42968,5.71289 1.72632,5.17898 0.67809,1.01813 2.85743,4.28711 1.75824,2.63739 2.52691,5.93296 4.28515,8.57031 0.74711,1.12067 2.04929,1.77995 2.85742,2.85742 0.63887,0.85187 0.78886,2.00559 1.42774,2.85742 0.80812,1.07747 2.3572,1.60689 2.85742,2.85743 0.53056,1.32638 -0.73499,3.06017 0,4.28515 0.88335,1.47224 3.07111,1.64336 4.28516,2.85742 2.4281,2.42812 3.56973,5.89088 5.71484,8.57227 0.84138,1.05173 2.0493,1.77796 2.85742,2.85547 1.43583,1.91444 2.03425,5.08661 2.85742,7.14453 2.4747,6.18678 1.31067,-0.82733 2.85743,10 0.1347,0.9428 0,1.90306 0,2.85547 0,2.90434 0.30007,4.26162 -1.42969,7.14453 -0.69296,1.15491 -2.01603,1.80374 -2.85742,2.85547 -1.07255,1.34071 -1.90505,2.85852 -2.85743,4.28711 -2.40794,3.6119 -3.44022,4.34563 -4.28515,8.57031 -0.18679,0.93388 0,1.90502 0,2.85742 v 14.28516 5.71484 c 0,1.90477 -0.42831,3.85887 0,5.71485 1.01581,4.40186 3.26934,8.45559 4.28515,12.85742 0.42831,1.85601 -0.23625,3.82282 0,5.71289 0.24352,1.94823 1.15203,3.77122 1.42969,5.71484 0.20202,1.41422 0,2.85661 0,4.28516 v 12.85742 c 0,0.82314 0.26034,6.62191 0,7.14258 -0.30115,0.60234 -1.21673,0.79079 -1.42969,1.42969 -0.65019,1.95053 0.65019,6.61977 0,8.57031 -0.21297,0.63889 -1.12656,0.82734 -1.42773,1.42969 -0.21298,0.42591 0.33672,1.09097 0,1.42773 -0.33672,0.33676 -1.09102,-0.33676 -1.42773,0 -0.33672,0.33676 0,0.9535 0,1.42969 v 2.85742 18.57031 c 0,0.9524 0.30115,1.95389 0,2.85742 -0.21298,0.63886 -1.12852,0.82539 -1.42969,1.42774 -0.21294,0.42591 0,0.9535 0,1.42969 0,0.47618 -0.15058,0.97596 0,1.42773 2.53097,7.59288 -0.0337,0.92998 2.85742,2.85742 7.97247,5.31496 -3.23697,0.52506 7.14258,5.71485 1.34687,0.67343 2.82427,1.06251 4.28515,1.42773 0.46197,0.11565 1.09298,-0.33676 1.42969,0 0.75293,0.75292 0.67481,2.1045 1.42774,2.85742 0.33671,0.33676 0.97792,-0.15042 1.42968,0 5.97681,-2.58693 1.65274,2.25512 2.85743,2.85742 0.85183,0.42596 1.95196,-0.30123 2.85546,0 0.48028,0.16026 5.37538,5.37537 5.71485,5.71485 0.95238,0.95236 2.0493,1.77991 2.85742,2.85742 1.27775,1.70366 1.67614,3.94093 2.85742,5.71289 0.37357,0.56031 1.12657,0.82734 1.42774,1.42969 0.67344,1.34687 0.87042,2.88699 1.42968,4.28515 0.39545,0.98865 1.09102,1.84727 1.42774,2.85743 0.62087,1.86262 0.70051,3.89186 1.42969,5.71484 0.25012,0.62525 1.12656,0.82543 1.42773,1.42773 0.67343,1.34688 0.7543,2.93829 1.42773,4.28516 0.76784,1.53566 2.25458,2.67949 2.85743,4.28711 1.91422,5.10455 1.42968,10.42522 1.42968,15.71289 v 7.14258 c 0,1.90477 0.26937,3.82923 0,5.71484 -1.24787,8.73509 -0.90775,0.38388 -4.28711,7.14258 -0.42592,0.85187 0.30116,1.95393 0,2.85742 -0.21297,0.63885 -1.05418,0.86742 -1.42773,1.42774 -0.59064,0.88599 -1.09101,1.84726 -1.42773,2.85742 -0.10455,0.3137 -0.10621,5.50247 0,5.71484 0.30119,0.60234 1.12656,0.82735 1.42773,1.42969 0.21298,0.42591 -0.33672,1.09102 0,1.42773 0.33672,0.33676 1.09101,-0.33675 1.42773,0 4.25418,4.2542 -2.1352,1.86147 4.28711,5.71485 1.29125,0.77476 3.10929,0.48704 4.28516,1.42773 2.87807,2.30249 1.4071,3.41239 4.28516,5.71485 1.90476,1.42854 3.81008,2.85657 5.71484,4.28515 0,0.47618 -0.26415,1.03153 0,1.42774 0.74711,1.12066 2.25508,1.65273 2.85742,2.85742 0.42592,0.85183 -0.42591,2.00559 0,2.85742 0.21298,0.42591 1.00183,-0.21317 1.42774,0 5.94537,2.97267 -1.52608,-0.0984 1.42968,2.85742 0.33672,0.33676 1.04678,-0.28573 1.42774,0 2.15499,1.61624 3.81008,3.81008 5.71484,5.71485 3.90981,3.9098 -2.17624,-2.3619 4.28516,5.71484 0.18047,0.22564 5.65339,5.60536 5.71484,5.71289 1.27228,2.22652 1.58513,4.91606 2.85742,7.14258 0.66824,1.16938 2.04931,1.77991 2.85743,2.85742 1.43582,1.91441 2.03231,5.08466 2.85546,7.14258 1.97051,4.92627 1.27811,0.82724 2.85743,7.14453 0.36306,1.45224 -0.41937,7.73156 0,8.57031 0.30115,0.60234 1.21673,0.78888 1.42968,1.42774 0.60234,1.80703 -0.60234,3.90781 0,5.71484 0.42591,1.27774 2.11032,1.73675 2.85743,2.85742 0.59063,0.88596 0.95154,1.90506 1.42773,2.85742 0.99021,1.98045 2.08935,3.91191 3.07031,5.89649 a 444.99998,444.99998 0 0 0 79.07227,-253.03906 444.99998,444.99998 0 0 0 -141.73828,-324.9043 z m -265.73828,456.16601 c -1.06371,-0.0552 -2.16687,0.16602 -3.23829,0.16602 h -5.71289 -18.57226 -2.85742 c -0.95237,0 -1.93348,-0.23093 -2.85743,0 -1.03302,0.25814 -1.81137,1.22087 -2.85546,1.42969 -1.40085,0.28006 -2.88631,-0.28007 -4.28711,0 -5.97468,1.19493 -0.0221,2.85742 -4.28516,2.85742 h -1.42773 c -0.47619,0 -1.21675,-0.42592 -1.42969,0 -0.42592,0.85183 0.30123,1.95197 0,2.85547 -0.21317,0.63889 -0.95155,0.9535 -1.42774,1.42969 -0.47618,1.42854 -1.13435,2.80853 -1.42968,4.28515 -0.11074,0.55332 0.11754,5.47987 0,5.71485 -1.06477,2.12961 -2.96448,3.73376 -4.28516,5.71484 -0.59066,0.88596 -1.03228,1.86682 -1.42773,2.85547 -0.55926,1.39812 -0.5262,3.08242 -1.42969,4.28711 -0.63886,0.85183 -2.38124,0.47537 -2.85742,1.42773 -0.63886,1.27778 0.28006,2.88435 0,4.28516 -0.20901,1.04413 -1.03225,1.86881 -1.42774,2.85742 -0.97051,2.4263 -2.4704,7.67782 -2.85742,10 -0.26457,1.58729 0.39685,5.9521 0,7.14258 -0.54293,1.62882 -2.18108,2.709 -2.85742,4.28711 -0.77341,1.80461 -0.69855,3.88995 -1.42774,5.71289 -3.30402,8.26015 -9.91005,18.7491 -15.71484,25.71484 -0.86226,1.03472 -1.90502,1.90502 -2.85742,2.85742 -2.65746,2.65746 -3.91273,3.53831 -5.71485,7.14258 -0.21316,0.42592 0.42592,1.2148 0,1.42774 -0.85183,0.42591 -2.00363,-0.42592 -2.85546,0 -0.42592,0.21316 0,0.9535 0,1.42968 -0.95241,0.47619 -1.82441,1.16948 -2.85743,1.42774 -0.92394,0.23093 -1.93347,-0.23093 -2.85742,0 -2.066,0.51647 -3.69457,2.18398 -5.71484,2.85742 -1.35526,0.45177 -2.88435,-0.28006 -4.28516,0 -1.47662,0.29518 -2.93828,0.75629 -4.28515,1.42969 -0.60235,0.30123 -0.80441,1.17764 -1.42969,1.42773 -2.36542,3.54788 -5.82241,0.51372 -8.57031,1.42969 -1.27775,0.42591 -1.73676,2.10837 -2.85743,2.85547 -0.88596,0.59062 -2.1045,0.67677 -2.85742,1.42969 -0.75292,0.75291 -0.88184,1.94436 -1.42969,2.85742 -0.88331,1.47224 -2.21782,2.69102 -2.85546,4.28515 -0.35377,0.88426 0.42591,2.0056 0,2.85743 -0.21279,0.42591 -1.09297,-0.33676 -1.42969,0 -0.33676,0.33675 0,0.95155 0,1.42773 v 4.28516 c 0,0.47622 -0.21317,1.00377 0,1.42968 0.60234,1.20469 2.25508,1.65274 2.85742,2.85743 0.21279,0.42591 -0.33676,1.09101 0,1.42773 2.95574,2.95578 -0.11537,-4.51566 2.85742,1.42969 0.28309,0.56643 -0.29216,3.99311 0,4.28515 0.33676,0.33676 1.09102,-0.33675 1.42774,0 2.95574,2.95578 -4.51566,-0.1154 1.42968,2.85743 0.42592,0.21278 1.00182,-0.21279 1.42774,0 0.60234,0.30122 0.89091,1.02366 1.42969,1.42773 0.91071,0.68304 6.2449,3.91953 7.14257,5.71484 0.06,0.12007 0.0884,0.20135 0.13477,0.30469 0.57147,0.14672 1.42402,0.47373 2.72266,1.12305 0.42591,0.21316 -0.33676,1.09297 0,1.42969 0.33675,0.33675 1.00178,-0.21317 1.42773,0 0.60231,0.30122 0.95155,0.95155 1.42773,1.42773 0.84023,0.84023 5.38406,5.05331 5.71485,5.71484 0.21279,0.42592 -0.33676,1.09102 0,1.42774 0.75292,0.75292 2.1045,0.67677 2.85742,1.42969 0.33676,0.33675 -0.21317,1.00181 0,1.42773 0.60234,1.20469 2.16445,1.70247 2.85742,2.85742 1.09569,1.82612 1.90506,3.81008 2.85742,5.71485 0.47622,0.95236 1.09102,1.84726 1.42774,2.85742 0.15042,0.45173 -0.15043,0.976 0,1.42773 0.33675,1.01016 1.17143,1.8244 1.42969,2.85742 0.23092,0.92395 0,1.90502 0,2.85743 v 8.57031 1.42969 c 0,0.9524 0.52826,2.065 0,2.85742 -0.59067,0.88599 -2.10451,0.67481 -2.85743,1.42773 -0.75292,0.75292 -0.67676,2.1045 -1.42968,2.85742 -0.75292,0.75292 -2.00556,0.78885 -2.85743,1.42774 -1.07746,0.8081 -1.7348,2.11032 -2.85546,2.85742 -0.39621,0.26419 -1.09297,-0.33676 -1.42969,0 -0.75296,0.75292 -0.67482,2.1045 -1.42774,2.85742 -0.33675,0.33676 -1.00377,-0.21279 -1.42968,0 -0.60231,0.30123 -0.86742,1.05612 -1.42774,1.42969 -1.30499,0.86997 -3.46628,1.21772 -4.28515,2.85547 -2.304,4.608 2.304,-1.75058 0,2.85742 -0.30123,0.60234 -1.05612,0.86937 -1.42969,1.42969 -1.18129,1.77191 -1.90506,3.80812 -2.85742,5.71289 -0.47619,0.95236 -0.76254,2.02596 -1.42774,2.85742 -0.008,0.008 -5.79706,6.24558 -7.14258,7.14258 -0.88596,0.59062 -2.03941,0.74805 -2.85742,1.42969 -2.0694,1.72452 -3.81007,3.81007 -5.71484,5.71484 -1.42859,1.42858 -2.47817,3.38162 -4.28516,4.28516 -2.17175,1.08585 -4.97082,0.34198 -7.14258,1.42773 -1.80703,0.90353 -2.67087,3.07299 -4.28711,4.28516 -0.19124,0.14362 -7.67528,4.84305 -10,5.71484 -2.8199,1.05747 -5.71317,1.90506 -8.57031,2.85742 -1.42858,0.47618 -2.80857,1.13436 -4.28515,1.42969 -1.40085,0.28006 -2.93185,-0.45177 -4.28711,0 -10.34775,3.44923 2.25286,-0.41356 -4.28516,2.85547 -0.58224,0.29102 -9.62159,-0.0473 -10,0 -2.40934,0.30123 -4.72444,1.20987 -7.14258,1.42969 -2.84542,0.25851 -5.71513,0 -8.57226,0 h -20.86914 a 444.99998,444.99998 0 0 0 193.72656,45 444.99998,444.99998 0 0 0 342.42187,-161.04297 c -2.07184,-1.54906 -4.65906,-2.36418 -6.70703,-3.95703 -2.12631,-1.65381 -3.70152,-3.9252 -5.71484,-5.71485 -2.27893,-2.02571 -4.84789,-3.70701 -7.14258,-5.71484 -1.52043,-1.3304 -2.66892,-3.07299 -4.28516,-4.28516 -2.22132,-1.66598 -4.78798,-2.81356 -7.14257,-4.28515 -1.45595,-0.90996 -2.83115,-1.94747 -4.28711,-2.85743 -2.35459,-1.47163 -4.86787,-2.69288 -7.14258,-4.28515 -2.49793,-1.74856 -4.49521,-4.20205 -7.14258,-5.71485 -0.8269,-0.47251 -2.00559,0.42596 -2.85742,0 -0.42592,-0.21278 0.33672,-1.09101 0,-1.42773 -0.75293,-0.75292 -2.10449,-0.67677 -2.85742,-1.42969 -0.67344,-0.67343 0.67344,-2.18398 0,-2.85742 -0.33672,-0.33676 -1.09102,0.33676 -1.42774,0 -0.75292,-0.75292 -0.83904,-1.97146 -1.42969,-2.85742 -0.74711,-1.12067 -2.01408,-1.8057 -2.85546,-2.85742 -3.95627,-1.55811 -3.65453,-5.82324 -5.71485,-8.57032 -3.7491,-4.9988 -1.5431,-1.15635 -5.71484,-4.28515 -1.0775,-0.80814 -1.65274,-2.25512 -2.85742,-2.85742 -0.85183,-0.42596 -1.90505,0 -2.85743,0 h -7.14257 -12.85743 c -1.42857,0 -2.88432,-0.28007 -4.28515,0 -3.3994,0.67986 -6.58045,2.2875 -10,2.85742 -2.34856,0.3914 -4.76161,0 -7.14258,0 h -5.71484 -12.85743 c -1.42854,0 -2.89924,0.34658 -4.28515,0 -4.38267,-1.09569 -8.74481,-2.41776 -12.85742,-4.28711 -1.22616,-0.55733 -1.70252,-2.16253 -2.85743,-2.85547 -1.29127,-0.77477 -2.85657,-0.95351 -4.28515,-1.42969 -1.90477,-0.95236 -3.94289,-1.67613 -5.71485,-2.85742 -1.12063,-0.7471 -1.90306,-1.90506 -2.85546,-2.85742 -0.95237,-0.95241 -1.90506,-1.90502 -2.85743,-2.85742 -0.9524,-0.95237 -2.3572,-1.60494 -2.85742,-2.85547 -0.53057,-1.32639 0.63886,-3.00937 0,-4.28711 -1.75022,-3.50041 -3.18471,0.44591 -4.28515,-2.85547 -0.30123,-0.9035 0.30122,-1.95393 0,-2.85742 -0.21279,-0.63889 -1.08318,-0.85222 -1.42969,-1.42969 -1.09565,-1.82612 -1.67613,-3.94097 -2.85742,-5.71289 -0.7471,-1.12067 -2.01606,-1.80569 -2.85743,-2.85742 -1.07255,-1.34068 -1.73812,-2.98355 -2.85546,-4.28711 -13.35462,-15.58039 1.70462,3.13435 -11.42969,-10 -1.68359,-1.68359 -2.7173,-3.92106 -4.28516,-5.71289 -1.77384,-2.02727 -3.72163,-3.90283 -5.71484,-5.71485 -6.3549,-5.77716 -9.87383,-9.22303 -17.14258,-12.85742 -1.34687,-0.67343 -2.90106,-0.83454 -4.28516,-1.42773 -13.00652,-6.50325 0.51004,-0.083 -10,-4.28711 -0.98865,-0.39545 -1.80709,-1.25271 -2.85742,-1.42774 -2.81824,-0.46972 -5.71513,0 -8.57226,0 h -17.14258 c -0.14627,0 -11.2182,-0.10469 -11.42774,0 -0.42591,0.21279 0.33676,1.09102 0,1.42774 -0.33675,0.33675 -0.9535,0 -1.42968,0 -0.47622,0 -0.97597,0.15042 -1.42774,0 -1.01015,-0.33676 -1.84727,-1.09102 -2.85742,-1.42774 -0.45177,-0.1508 -1.00182,0.21279 -1.42773,0 -4.35651,-2.17825 2.61139,-1.13278 -4.28711,-2.85742 -0.92395,-0.23093 -1.95393,0.30123 -2.85743,0 -2.0203,-0.67343 -3.66525,-2.27239 -5.71289,-2.85742 -0.3434,-0.0981 -0.69425,-0.14762 -1.04882,-0.16602 z m -118.81641,156.18555 c -2.68739,-0.68997 1.32607,2.95675 0,0 z m -266.92969,-63.3418 c -1.07043,0.02 -2.13897,0.0731 -3.20508,0.17969 -2.56255,0.25625 -7.3894,1.98719 -10,2.85742 -1.42858,0.47619 -2.80175,1.18018 -4.28711,1.42774 -1.40915,0.23471 -2.8566,0 -4.28515,0 h -4.28516 c -0.53592,0 -5.88382,0.26778 -6.95508,0.0351 a 444.99998,444.99998 0 0 0 101.08985,116.70899 c 0.0429,-1.29487 0.15039,-2.59541 0.15039,-3.88672 v -17.14258 -11.42773 -4.28711 c 0,-0.95237 0.26154,-1.93977 0,-2.85547 -0.95241,-2.38095 -1.90502,-4.76358 -2.85742,-7.14453 0,-0.95241 0.23093,-1.93348 0,-2.85742 -0.25815,-1.03299 -1.09102,-1.84532 -1.42774,-2.85547 -0.62086,-1.86263 -0.80878,-3.85222 -1.42969,-5.71485 -0.33675,-1.01015 -0.95155,-1.90502 -1.42773,-2.85742 -0.47622,-0.95236 -0.83711,-1.97146 -1.42773,-2.85742 -1.32072,-1.98108 -3.34919,-3.52447 -4.28711,-5.71289 -0.56274,-1.31308 0.53057,-2.96072 0,-4.28711 -0.50022,-1.25053 -2.04932,-1.77995 -2.85743,-2.85742 -3.1474,-0.71944 -0.75429,-2.93829 -1.42773,-4.28516 -1.61533,-3.2307 -2.27615,-3.7058 -4.28516,-5.71484 -0.47622,-0.47619 -1.05615,-0.86742 -1.42968,-1.42774 -0.59067,-0.88596 -0.67482,-2.10446 -1.42774,-2.85742 -0.33675,-0.33675 -1.09297,0.33676 -1.42969,0 -0.75292,-0.75292 -0.8371,-1.97146 -1.42773,-2.85742 -1.40141,-2.1021 -4.31343,-3.61079 -5.71484,-5.71289 -0.26419,-0.39625 0,-0.95351 0,-1.42969 -0.47619,-0.95236 -0.67482,-2.1045 -1.42774,-2.85742 -0.33675,-0.33676 -1.09297,0.33676 -1.42969,0 -0.29215,-0.29216 0.28309,-3.71876 0,-4.28516 -0.35867,-0.71701 -6.98561,-7.06411 -7.14257,-7.14257 -0.85183,-0.42592 -2.06501,0.5283 -2.85743,0 -0.88595,-0.59063 -0.67481,-2.10451 -1.42773,-2.85743 -0.75292,-0.75295 -1.97146,-0.8371 -2.85742,-1.42773 -0.56035,-0.37342 -0.82543,-1.1285 -1.42774,-1.42969 -0.42595,-0.21279 -0.9535,0 -1.42968,0 h -1.42774 -4.28515 c -3.21429,0 -6.44106,-0.23965 -9.65235,-0.17969 z"
       transform="scale(0.26458333)"
       id="path4562"
       inkscape:connector-curvature="0" />
    <path
       style="fill:none;stroke:#000000;stroke-width:0.26458332px;stroke-linecap:butt;stroke-linejoin:miter;stroke-opacity:1"
       d="m -274.78868,77.017855 c -0.0364,-0.172085 -0.009,-0.102706 -0.0646,-0.214537 -0.0111,-0.02228 -0.0159,-0.04921 -0.0334,-0.06682 -0.0175,-0.01762 -0.053,-0.0127 -0.0668,-0.03341 -0.0124,-0.01852 0.0124,-0.04829 0,-0.06682 -0.0138,-0.02072 -0.053,-0.0127 -0.0668,-0.03341 -0.10586,-0.158784 0.12832,0.02809 -0.0334,-0.133636 -0.0177,-0.01759 -0.0492,-0.01579 -0.0668,-0.03341 -0.008,-0.0079 0.008,-0.02553 0,-0.03341 -0.008,-0.0079 -0.0254,0.0079 -0.0334,0 -0.0159,-0.01574 0.01,-0.0469 0,-0.06682 -0.014,-0.02817 -0.0569,-0.03693 -0.0668,-0.06682 -0.007,-0.02114 0.007,-0.04569 0,-0.06682 -0.005,-0.01495 -0.0265,-0.01932 -0.0334,-0.03341 -0.005,-0.0099 0,-0.02228 0,-0.03341 -0.0222,-0.02228 -0.0494,-0.04061 -0.0668,-0.06682 -0.0124,-0.01852 0.01,-0.0469 0,-0.06682 -0.007,-0.01408 -0.0265,-0.01931 -0.0334,-0.03341 -0.005,-0.01 0.005,-0.02344 0,-0.03341 -0.007,-0.01408 -0.0284,-0.01847 -0.0334,-0.03341 -0.005,-0.01529 0,-0.148397 0,-0.167042 0,-0.01114 0.003,-0.02283 0,-0.03341 -0.008,-0.02363 -0.0254,-0.0432 -0.0334,-0.06682 -0.0119,-0.0355 0.0119,-0.09813 0,-0.133636 -0.005,-0.01495 -0.0265,-0.01931 -0.0334,-0.03341 -0.005,-0.0099 0,-0.02228 0,-0.03341 0,-0.02228 0,-0.04454 0,-0.06682 0,-0.06682 0,-0.133636 0,-0.200454 0,-0.100226 0,-0.20045 0,-0.300677 0,-0.01114 0,-0.02228 0,-0.03341 0,-0.01114 -0.008,-0.02553 0,-0.03341 0.008,-0.0079 0.0257,0.0079 0.0334,0 0.008,-0.0079 -0.008,-0.02553 0,-0.03341 0.0156,-0.01574 0.0511,0.01574 0.0668,0 0.0691,-0.06912 -0.10562,0.0027 0.0334,-0.06682 0.01,-0.005 0.0236,0.005 0.0334,0 0.014,-0.007 0.0193,-0.02638 0.0334,-0.03341 0.01,-0.005 0.0257,0.0079 0.0334,0 0.008,-0.0079 -0.01,-0.02843 0,-0.03341 0.0199,-0.0099 0.0457,0.007 0.0668,0 0.0148,-0.005 0.0193,-0.02635 0.0334,-0.03341 0.01,-0.005 0.0257,0.0079 0.0334,0 0.008,-0.0079 -0.008,-0.02553 0,-0.03341 0.008,-0.008 0.1256,0.008 0.13365,0 0.008,-0.0079 -0.008,-0.02553 0,-0.03341 0.0159,-0.01574 0.0469,0.0099 0.0668,0 0.014,-0.007 0.0193,-0.02635 0.0334,-0.03341 0.0101,-0.005 0.0236,0.005 0.0334,0 0.014,-0.007 0.0315,-0.04904 0.0334,-0.03341 0.0116,0.09438 -0.003,0.190193 -0.003,0.28529"
       id="path4564"
       inkscape:connector-curvature="0" />
  </g>
</svg>
